# xmcd CD database file
#
# Track frame offsets:
#	150
#	21085
#	46758
#
# Disc length: 850 seconds
#
# Revision: 0
# Processed by: cddbd v1.5.1PL0 Copyright (c) Steve Scherf et al.
# Submitted via: CDex 1.51
#
DISCID=18035003
DTITLE=MEAN MACHINE - Knock On You (EP)
DYEAR=2001
DGENRE=Rock
TTITLE0=Knock On You
TTITLE1=そばにいれば (Dub Shower)
TTITLE2=ラッキー☆スター (Pheromone Kickin' Mix)
EXTD=YEAR: 2001
EXTT0=
EXTT1=
EXTT2=
PLAYORDER=
